<svg width="41" height="41" viewBox="0 0 41 41" fill="none" xmlns="http://www.w3.org/2000/svg">
<g filter="url(#filter0_iiif_577_89)">
<path d="M13.325 3.41666H27.675C33.1416 3.41666 37.5833 7.85832 37.5833 13.325V27.675C37.5833 30.3028 36.5394 32.8231 34.6812 34.6812C32.823 36.5394 30.3028 37.5833 27.675 37.5833H13.325C7.85829 37.5833 3.41663 33.1417 3.41663 27.675V13.325C3.41663 10.6971 4.46054 8.17691 6.31871 6.31874C8.17688 4.46057 10.6971 3.41666 13.325 3.41666ZM12.9833 6.83332C11.3522 6.83332 9.78793 7.48127 8.63459 8.63462C7.48124 9.78797 6.83329 11.3522 6.83329 12.9833V28.0167C6.83329 31.4162 9.58371 34.1667 12.9833 34.1667H28.0166C29.6477 34.1667 31.212 33.5187 32.3653 32.3654C33.5187 31.212 34.1666 29.6477 34.1666 28.0167V12.9833C34.1666 9.58374 31.4162 6.83332 28.0166 6.83332H12.9833ZM29.4687 9.39582C30.0351 9.39582 30.5782 9.6208 30.9787 10.0213C31.3791 10.4217 31.6041 10.9649 31.6041 11.5312C31.6041 12.0976 31.3791 12.6407 30.9787 13.0412C30.5782 13.4417 30.0351 13.6667 29.4687 13.6667C28.9024 13.6667 28.3592 13.4417 27.9587 13.0412C27.5583 12.6407 27.3333 12.0976 27.3333 11.5312C27.3333 10.9649 27.5583 10.4217 27.9587 10.0213C28.3592 9.6208 28.9024 9.39582 29.4687 9.39582ZM20.5 11.9583C22.7654 11.9583 24.938 12.8582 26.5398 14.4601C28.1417 16.062 29.0416 18.2346 29.0416 20.5C29.0416 22.7654 28.1417 24.938 26.5398 26.5399C24.938 28.1417 22.7654 29.0417 20.5 29.0417C18.2346 29.0417 16.062 28.1417 14.4601 26.5399C12.8582 24.938 11.9583 22.7654 11.9583 20.5C11.9583 18.2346 12.8582 16.062 14.4601 14.4601C16.062 12.8582 18.2346 11.9583 20.5 11.9583ZM20.5 15.375C19.1407 15.375 17.8372 15.9149 16.876 16.8761C15.9149 17.8372 15.375 19.1408 15.375 20.5C15.375 21.8592 15.9149 23.1628 16.876 24.1239C17.8372 25.085 19.1407 25.625 20.5 25.625C21.8592 25.625 23.1628 25.085 24.1239 24.1239C25.085 23.1628 25.625 21.8592 25.625 20.5C25.625 19.1408 25.085 17.8372 24.1239 16.8761C23.1628 15.9149 21.8592 15.375 20.5 15.375Z" fill="#FF5500"/>
</g>
<defs>
<filter id="filter0_iiif_577_89" x="-1.70833" y="-1.70833" width="44.4167" height="49.5417" filterUnits="userSpaceOnUse" color-interpolation-filters="sRGB">
<feFlood flood-opacity="0" result="BackgroundImageFix"/>
<feBlend mode="normal" in="SourceGraphic" in2="BackgroundImageFix" result="shape"/>
<feColorMatrix in="SourceAlpha" type="matrix" values="0 0 0 0 0 0 0 0 0 0 0 0 0 0 0 0 0 0 127 0" result="hardAlpha"/>
<feOffset dy="6.83333"/>
<feGaussianBlur stdDeviation="2.5625"/>
<feComposite in2="hardAlpha" operator="arithmetic" k2="-1" k3="1"/>
<feColorMatrix type="matrix" values="0 0 0 0 1 0 0 0 0 0.683333 0 0 0 0 0 0 0 0 1 0"/>
<feBlend mode="normal" in2="shape" result="effect1_innerShadow_577_89"/>
<feColorMatrix in="SourceAlpha" type="matrix" values="0 0 0 0 0 0 0 0 0 0 0 0 0 0 0 0 0 0 127 0" result="hardAlpha"/>
<feOffset dy="6.83333"/>
<feGaussianBlur stdDeviation="3.41667"/>
<feComposite in2="hardAlpha" operator="arithmetic" k2="-1" k3="1"/>
<feColorMatrix type="matrix" values="0 0 0 0 1 0 0 0 0 0.683333 0 0 0 0 0 0 0 0 1 0"/>
<feBlend mode="normal" in2="effect1_innerShadow_577_89" result="effect2_innerShadow_577_89"/>
<feColorMatrix in="SourceAlpha" type="matrix" values="0 0 0 0 0 0 0 0 0 0 0 0 0 0 0 0 0 0 127 0" result="hardAlpha"/>
<feOffset dy="6.83333"/>
<feGaussianBlur stdDeviation="3.41667"/>
<feComposite in2="hardAlpha" operator="arithmetic" k2="-1" k3="1"/>
<feColorMatrix type="matrix" values="0 0 0 0 1 0 0 0 0 0.683333 0 0 0 0 0 0 0 0 0.35 0"/>
<feBlend mode="plus-lighter" in2="effect2_innerShadow_577_89" result="effect3_innerShadow_577_89"/>
<feGaussianBlur stdDeviation="0.854167" result="effect4_foregroundBlur_577_89"/>
</filter>
</defs>
</svg>
