<?xml version="1.0" standalone="no"?>
<!DOCTYPE svg PUBLIC "-//W3C//DTD SVG 20010904//EN"
 "http://www.w3.org/TR/2001/REC-SVG-20010904/DTD/svg10.dtd">
<svg version="1.0" xmlns="http://www.w3.org/2000/svg"
 width="1080.000000pt" height="1080.000000pt" viewBox="0 0 1080.000000 1080.000000"
 preserveAspectRatio="xMidYMid meet">
<metadata>
Created by potrace 1.14, written by Peter Selinger 2001-2017
</metadata>
<g transform="translate(0.000000,1080.000000) scale(0.100000,-0.100000)"
fill="#000000" stroke="none">
<path d="M2738 10485 c-3 -4 -30 -8 -60 -9 -29 -2 -69 -6 -88 -10 -19 -4 -46
-8 -60 -10 -14 -1 -31 -5 -37 -9 -7 -4 -28 -8 -47 -9 -21 -1 -37 -7 -41 -16
-4 -12 -8 -13 -17 -4 -9 9 -17 7 -32 -6 -14 -12 -17 -13 -11 -2 6 12 5 13 -6
3 -7 -7 -21 -13 -31 -13 -10 0 -18 -4 -18 -10 0 -5 -8 -10 -17 -10 -10 0 -27
-7 -37 -15 -10 -8 -23 -12 -28 -9 -4 3 -11 -2 -14 -10 -3 -9 -10 -14 -14 -11
-5 3 -15 -2 -24 -10 -8 -9 -17 -15 -18 -15 -8 4 -58 -13 -54 -18 3 -3 -11 -13
-32 -22 -20 -10 -47 -27 -59 -39 -13 -12 -23 -19 -23 -15 0 4 -11 -5 -25 -20
-13 -14 -26 -25 -29 -24 -7 5 -76 -62 -76 -74 0 -6 -3 -9 -6 -5 -8 7 -54 -38
-54 -53 0 -6 -4 -9 -8 -6 -5 3 -15 -6 -22 -19 -7 -13 -17 -22 -22 -19 -4 3 -8
0 -8 -6 0 -6 -10 -22 -22 -35 -46 -49 -118 -153 -118 -171 0 -7 -7 -14 -15
-18 -8 -3 -12 -12 -9 -21 3 -8 1 -15 -5 -15 -6 0 -11 -7 -11 -16 0 -9 -5 -12
-12 -8 -7 4 -10 4 -6 -1 4 -4 -2 -25 -13 -46 -11 -22 -16 -39 -12 -39 5 0 2
-4 -5 -9 -7 -4 -14 -18 -15 -29 -1 -12 -5 -22 -9 -22 -4 0 -8 -11 -8 -25 0
-14 -4 -25 -10 -25 -5 0 -10 -12 -10 -26 0 -14 -4 -23 -8 -20 -4 2 -8 -3 -9
-12 -1 -9 -12 -39 -24 -67 -13 -27 -23 -54 -24 -60 -1 -24 -49 -135 -57 -135
-5 0 -7 -4 -3 -9 3 -5 1 -12 -5 -16 -6 -4 -8 -10 -5 -15 3 -5 1 -11 -5 -15 -5
-3 -10 -15 -10 -26 0 -10 -4 -19 -9 -19 -6 0 -8 -9 -6 -20 2 -11 0 -20 -4 -20
-5 0 -12 -11 -15 -25 -4 -14 -11 -25 -16 -25 -5 0 -7 -9 -5 -20 2 -11 1 -20
-3 -20 -4 0 -9 -12 -10 -26 -1 -15 -7 -34 -14 -41 -7 -8 -13 -22 -14 -31 -2
-8 -8 -18 -14 -22 -7 -4 -11 -10 -11 -14 4 -25 0 -36 -11 -30 -7 4 -8 3 -4 -5
4 -6 3 -17 -2 -24 -6 -7 -11 -15 -11 -19 -5 -29 -55 -158 -61 -158 -3 0 -7
-10 -7 -22 -1 -13 -7 -24 -13 -26 -5 -2 -10 -14 -10 -27 0 -13 -5 -27 -10 -30
-6 -3 -10 -17 -10 -31 0 -13 -4 -24 -10 -24 -5 0 -10 -11 -10 -25 0 -14 -4
-25 -10 -25 -5 0 -10 -8 -10 -18 0 -10 -4 -22 -8 -27 -5 -6 -15 -30 -22 -55
-8 -25 -17 -50 -21 -55 -4 -6 -9 -24 -12 -40 -2 -17 -6 -37 -10 -45 -3 -8 -8
-28 -11 -45 -4 -16 -9 -41 -12 -55 -3 -14 -8 -47 -11 -75 -8 -82 -12 -6259 -3
-6270 4 -5 10 -32 13 -60 9 -90 19 -140 28 -143 5 -2 9 -19 9 -38 0 -19 5 -34
10 -34 6 0 10 -10 10 -23 0 -13 4 -27 9 -33 5 -5 11 -18 13 -29 1 -11 8 -26
15 -32 6 -7 10 -21 9 -30 -2 -10 3 -24 11 -31 7 -7 16 -25 20 -40 3 -15 13
-33 20 -41 8 -7 17 -26 20 -42 3 -16 12 -29 20 -29 8 0 11 -4 8 -10 -3 -5 2
-10 12 -10 15 0 16 -2 3 -10 -11 -7 -11 -10 -2 -10 7 0 10 -4 7 -10 -3 -5 0
-10 8 -10 10 0 14 -7 10 -22 -4 -19 -3 -20 6 -8 10 13 11 13 12 0 1 -8 1 -18
0 -22 0 -5 3 -8 9 -8 5 0 10 -7 10 -15 0 -8 4 -14 9 -13 5 2 10 -1 12 -7 1 -5
9 -15 18 -22 9 -7 12 -13 8 -13 -12 0 40 -50 52 -50 6 0 7 -7 4 -17 -4 -11 -3
-14 5 -9 7 4 12 1 12 -7 0 -8 13 -24 30 -37 16 -13 30 -29 30 -37 0 -8 4 -12
9 -8 5 3 17 -5 25 -17 9 -12 16 -19 16 -14 0 4 17 -11 38 -33 21 -23 44 -41
50 -41 7 0 12 -4 12 -10 0 -5 4 -10 10 -10 5 0 21 -9 34 -21 13 -12 26 -19 29
-18 3 2 16 -7 29 -21 13 -14 31 -26 39 -28 7 -2 15 -8 17 -13 2 -5 12 -9 22
-9 10 0 21 -4 25 -9 9 -15 126 -71 147 -71 11 0 16 -4 13 -10 -4 -6 5 -10 20
-10 14 0 24 -3 22 -8 -3 -4 9 -8 26 -9 17 -1 35 -7 41 -13 5 -5 20 -10 32 -10
13 0 26 -5 29 -11 4 -6 13 -8 20 -5 7 2 25 -2 40 -10 16 -8 33 -13 39 -11 6 3
26 -2 44 -9 19 -8 30 -9 26 -3 -4 7 1 7 15 0 14 -8 91 -11 241 -9 121 2 220 1
220 -2 0 -3 36 -3 80 0 44 3 80 3 80 0 0 -3 180 -3 400 0 220 3 400 3 400 0 0
-3 36 -3 80 0 44 3 80 3 80 0 0 -3 180 -3 400 0 220 3 400 3 400 0 0 -3 36 -3
80 0 44 3 80 3 80 0 0 -3 180 -3 400 0 220 3 400 2 400 -1 0 -4 15 -4 33 0 18
5 41 5 52 1 11 -4 25 -6 30 -3 16 5 845 9 845 3 0 -3 36 -3 80 0 44 3 80 3 80
0 0 -3 180 -3 400 0 220 3 400 3 400 0 0 -3 36 -3 80 0 44 3 80 3 80 0 0 -6
741 -2 747 4 2 2 19 0 38 -4 19 -4 36 -5 39 -3 2 3 33 6 68 8 35 1 74 5 87 8
13 4 40 7 61 9 26 1 36 6 33 14 -3 9 4 12 26 9 17 -2 31 -1 31 3 0 4 11 9 25
10 14 1 39 9 56 18 17 8 33 13 36 10 3 -2 21 4 40 15 20 11 42 18 50 15 8 -3
12 -2 9 2 -3 4 42 32 100 61 57 29 104 58 104 64 0 5 3 8 6 4 4 -3 12 -1 20 6
34 30 44 37 44 30 0 -4 5 0 11 10 6 9 14 15 19 12 4 -3 11 2 14 11 3 8 11 12
16 9 6 -4 9 -3 8 2 -2 4 -1 8 2 8 11 1 100 93 100 104 0 7 5 9 10 6 6 -3 10 2
10 12 0 11 3 14 8 7 5 -8 14 -3 27 13 11 14 36 42 55 63 55 60 79 90 72 90 -3
0 4 9 16 20 21 19 26 33 23 53 -1 5 2 6 7 3 5 -3 15 7 23 22 7 15 24 38 36 51
13 13 23 30 23 38 0 8 9 28 21 44 11 16 17 29 13 29 -3 0 -1 7 6 15 7 8 9 15
6 15 -4 0 -1 7 8 15 8 9 13 21 10 28 -2 7 5 22 16 34 11 12 20 31 20 42 0 11
5 23 10 26 6 3 10 19 10 35 0 15 4 30 10 32 5 2 10 18 12 35 1 18 5 33 9 33 3
0 7 15 8 33 3 54 4 57 13 57 5 0 8 6 7 12 -1 7 -1 32 0 56 1 31 5 41 14 37 6
-4 4 0 -6 8 -14 12 -15 16 -4 20 12 4 14 478 12 3099 -1 1701 -5 3107 -9 3123
-4 17 -8 47 -9 68 0 20 -4 37 -8 37 -4 0 -6 8 -4 18 1 9 0 22 -4 27 -3 6 -6
15 -6 20 -2 28 -19 91 -26 101 -5 6 -9 24 -11 41 -1 18 -6 29 -10 27 -7 -5
-13 27 -9 49 1 5 -3 6 -8 3 -5 -4 -12 7 -16 24 -4 16 -11 30 -16 30 -6 0 -8 4
-5 9 9 13 -4 42 -15 35 -5 -3 -8 -2 -7 3 2 6 -6 50 -17 93 0 3 -11 24 -23 48
-12 23 -20 42 -17 42 3 0 -6 18 -21 41 -14 23 -20 38 -12 33 11 -6 11 -5 0 9
-8 9 -11 21 -8 26 4 5 1 13 -7 18 -7 4 -13 15 -13 23 -1 8 -11 38 -24 65 -13
28 -23 53 -22 58 1 4 -2 7 -6 7 -4 0 -8 10 -9 22 -1 11 -6 24 -10 27 -4 3 -10
15 -11 26 -2 11 -8 22 -13 23 -5 2 -9 15 -9 28 0 13 -4 24 -10 24 -5 0 -10 11
-10 25 0 14 -4 25 -9 25 -4 0 -8 10 -7 23 1 12 -4 28 -11 35 -7 8 -11 18 -8
23 4 5 1 9 -5 9 -6 0 -8 5 -5 10 3 6 1 10 -5 10 -6 0 -8 5 -5 10 3 6 -1 13 -9
16 -9 3 -13 10 -10 16 3 5 -2 18 -11 28 -10 12 -15 28 -12 40 3 13 0 23 -8 26
-7 3 -12 14 -10 24 2 10 -3 24 -11 30 -7 7 -12 16 -9 20 3 5 -2 15 -10 24 -9
8 -16 18 -15 21 1 25 -1 35 -8 31 -7 -4 -12 17 -15 61 0 7 -4 10 -9 7 -7 -5
-12 18 -9 39 0 4 -3 7 -9 7 -5 0 -10 9 -10 20 0 11 -4 20 -10 20 -5 0 -10 10
-10 23 0 13 -9 33 -20 45 -11 12 -20 28 -20 37 0 8 -4 15 -10 15 -5 0 -10 10
-10 23 0 18 -2 19 -10 7 -8 -12 -10 -9 -10 13 0 16 -4 26 -8 23 -5 -3 -15 10
-22 29 -7 19 -17 32 -21 29 -4 -2 -11 5 -14 16 -4 12 -22 36 -41 55 -19 19
-34 39 -34 45 0 6 -4 8 -10 5 -5 -3 -10 -1 -10 5 0 15 -46 60 -54 53 -3 -4 -6
2 -6 12 0 10 -3 15 -6 12 -4 -4 -19 9 -35 29 -15 19 -31 36 -36 37 -4 1 -7 5
-6 10 2 4 -6 7 -16 7 -11 0 -27 10 -36 23 -8 12 -19 22 -23 22 -4 0 -6 3 -5 7
2 4 -3 5 -11 2 -8 -3 -25 6 -39 20 -15 14 -33 26 -42 26 -9 0 -13 5 -10 10 3
6 -2 10 -13 10 -11 0 -32 10 -48 22 -15 13 -24 17 -20 10 7 -11 4 -11 -12 -1
-12 7 -18 17 -15 23 3 5 1 6 -5 2 -6 -4 -23 1 -37 10 -14 9 -28 14 -32 11 -3
-4 -12 1 -20 11 -8 9 -12 11 -8 4 4 -7 -9 -4 -30 8 -21 12 -39 19 -42 16 -3
-2 -21 2 -40 10 -19 9 -38 13 -40 10 -3 -3 -15 0 -26 6 -11 6 -34 12 -51 14
-17 1 -44 6 -61 9 -16 4 -64 9 -105 11 -41 2 -94 5 -118 7 -24 1 -45 -1 -48
-4 -2 -4 -17 -4 -33 1 -15 4 -34 4 -41 0 -6 -4 -27 -4 -46 0 -19 4 -36 4 -39
0 -3 -5 -18 -5 -34 0 -15 4 -33 5 -40 1 -6 -4 -26 -6 -43 -4 -18 2 -43 3 -55
3 -40 -1 -47 -1 -121 2 -39 2 -72 0 -72 -4 0 -4 -13 -3 -28 2 -16 4 -35 4 -43
-1 -8 -4 -21 -4 -28 1 -8 4 -27 4 -42 0 -16 -5 -29 -6 -29 -2 0 4 -29 7 -65 7
-36 0 -65 -4 -65 -8 0 -5 -4 -5 -10 -2 -13 8 -118 10 -126 3 -3 -4 -18 -3 -33
2 -16 4 -34 4 -41 0 -6 -4 -27 -4 -46 0 -19 4 -36 4 -39 0 -3 -5 -18 -5 -34 0
-15 4 -33 5 -40 1 -12 -8 -80 -5 -88 3 -3 2 -17 1 -32 -4 -16 -4 -34 -4 -41 0
-7 5 -23 4 -36 0 -12 -5 -25 -6 -28 -3 -8 8 -141 7 -154 -1 -6 -4 -13 -2 -16
3 -4 6 -18 6 -36 1 -17 -5 -30 -6 -30 -2 0 4 -16 7 -35 7 -19 0 -35 -4 -35 -8
0 -5 -5 -5 -10 -2 -13 8 -178 10 -186 3 -3 -4 -18 -3 -33 2 -16 4 -34 4 -41 0
-6 -4 -27 -4 -46 0 -19 4 -36 4 -39 0 -3 -5 -18 -5 -34 0 -15 4 -33 5 -40 1
-12 -8 -91 -4 -99 4 -3 2 -12 1 -21 -4 -9 -5 -25 -5 -36 -1 -11 4 -32 4 -47
-1 -16 -4 -28 -5 -28 -1 0 8 -123 7 -136 0 -5 -3 -18 -2 -29 2 -11 4 -30 4
-42 -1 -12 -5 -25 -4 -28 1 -3 5 -18 5 -35 0 -17 -5 -30 -6 -30 -2 0 8 -188 7
-196 -1 -3 -3 -18 -2 -33 3 -16 4 -34 4 -41 0 -6 -4 -27 -4 -46 0 -19 4 -36 4
-39 0 -3 -5 -18 -5 -34 0 -16 4 -32 6 -35 2 -8 -8 -102 -5 -116 3 -5 3 -10 2
-10 -4 0 -6 -11 -6 -30 -1 -17 5 -30 5 -30 0 0 -5 -13 -5 -30 0 -17 5 -30 5
-30 0 0 -5 -13 -5 -30 0 -17 5 -30 5 -30 0 0 -5 -13 -5 -30 0 -17 5 -30 5 -30
0 0 -5 -13 -5 -30 0 -17 5 -30 5 -30 0 0 -5 -13 -5 -30 0 -17 5 -30 5 -30 0 0
-5 -13 -5 -30 0 -17 5 -30 5 -30 0 0 -5 -13 -5 -30 0 -19 5 -30 5 -30 -1 0 -6
-4 -7 -10 -4 -13 8 -108 11 -115 3 -4 -3 -19 -3 -34 2 -16 4 -34 4 -41 0 -6
-4 -27 -4 -46 0 -19 4 -36 4 -39 0 -3 -5 -18 -5 -34 0 -16 4 -32 6 -35 3 -7
-8 -105 -7 -113 0 -3 4 -13 2 -22 -3 -10 -5 -23 -5 -31 0 -8 5 -21 5 -30 0 -9
-5 -22 -5 -30 0 -8 5 -21 5 -30 0 -9 -5 -22 -5 -29 0 -8 4 -27 4 -42 0 -16 -5
-29 -5 -29 0 0 5 -13 5 -30 0 -17 -5 -30 -5 -30 0 0 5 -13 5 -30 0 -16 -5 -30
-6 -30 -2 0 8 -248 7 -256 -1 -3 -3 -18 -2 -33 3 -16 4 -34 4 -41 0 -6 -4 -27
-4 -46 0 -19 4 -36 4 -39 0 -3 -5 -18 -5 -34 0 -15 4 -33 5 -40 1 -6 -4 -26
-6 -43 -4 -47 5 -108 4 -118 -2 -5 -3 -10 0 -12 6 -2 5 -6 7 -10 4z m5128
-803 c-3 -5 34 -9 82 -9 165 -1 193 -3 187 -13 -3 -6 4 -9 17 -9 28 2 51 -3
59 -14 3 -4 16 -9 27 -10 12 -1 22 -5 22 -9 0 -4 9 -8 20 -8 11 0 20 -4 20
-10 0 -5 7 -10 15 -10 8 0 15 -5 15 -11 0 -5 5 -7 10 -4 6 3 13 -1 16 -9 3 -9
13 -16 21 -16 8 0 11 -4 8 -10 -3 -5 -1 -10 4 -10 21 0 111 -86 111 -106 0 -6
9 -19 20 -29 11 -10 20 -24 20 -30 0 -7 7 -18 15 -25 9 -7 13 -15 11 -18 -3
-2 4 -22 15 -43 11 -22 22 -60 25 -86 3 -26 9 -50 12 -53 9 -7 9 -5374 0
-5380 -4 -3 -10 -24 -14 -45 -3 -22 -10 -45 -15 -51 -5 -6 -5 -14 -1 -18 4 -4
-1 -14 -11 -21 -10 -7 -18 -16 -17 -20 4 -12 -23 -65 -32 -65 -5 0 -6 -5 -3
-10 3 -6 -1 -10 -9 -10 -9 0 -15 -3 -15 -8 4 -22 -2 -42 -11 -37 -5 3 -10 1
-10 -4 0 -11 -36 -51 -45 -51 -3 0 -21 -15 -39 -33 -44 -43 -87 -73 -99 -69
-6 2 -13 -2 -17 -8 -4 -6 -13 -12 -21 -13 -8 -2 -18 -5 -24 -9 -5 -3 -25 -9
-42 -13 -18 -3 -33 -10 -33 -14 0 -4 -18 -7 -40 -7 -22 1 -40 -2 -40 -7 0 -5
-7 -7 -15 -4 -8 4 -16 3 -19 -2 -5 -8 -64 -6 -73 3 -3 3 -14 1 -24 -5 -14 -7
-19 -6 -19 2 0 8 -4 8 -15 -1 -11 -9 -15 -9 -15 -1 0 7 -5 9 -12 4 -18 -10
-107 -10 -101 1 4 5 1 6 -6 1 -17 -10 -121 -12 -121 -2 0 5 -6 5 -12 1 -18
-12 -50 -13 -75 -3 -13 5 -23 5 -23 1 0 -10 -42 -8 -58 2 -7 4 -12 3 -12 -2 0
-10 -36 -9 -46 0 -3 4 -16 4 -28 0 -27 -9 -58 -8 -74 1 -6 5 -12 4 -12 -1 0
-9 -29 -10 -45 0 -6 3 -19 2 -30 -2 -11 -4 -30 -4 -42 1 -13 5 -23 5 -23 1 0
-8 -52 -8 -67 1 -4 2 -17 1 -28 -3 -11 -4 -30 -4 -42 1 -13 5 -23 5 -23 1 0
-8 -52 -8 -67 1 -4 2 -17 1 -28 -3 -11 -4 -30 -4 -42 1 -13 5 -23 5 -23 1 0
-8 -52 -8 -67 1 -4 2 -17 1 -28 -3 -11 -4 -30 -4 -42 1 -13 5 -23 5 -23 1 0
-8 -52 -8 -67 1 -4 2 -17 1 -28 -3 -11 -4 -30 -4 -42 1 -13 5 -23 5 -23 1 0
-8 -52 -8 -67 1 -4 2 -17 1 -28 -3 -11 -4 -30 -4 -42 1 -13 5 -23 5 -23 1 0
-4 -27 -7 -59 -7 -33 0 -57 3 -54 7 2 5 -7 4 -20 -1 -16 -6 -28 -6 -36 2 -7 7
-11 7 -11 1 0 -11 -35 -12 -46 -2 -3 4 -16 4 -28 0 -27 -9 -58 -8 -74 1 -6 5
-12 4 -12 -1 0 -9 -29 -10 -45 0 -6 3 -19 2 -30 -2 -11 -4 -30 -4 -42 1 -13 5
-23 5 -23 1 0 -8 -52 -8 -67 1 -4 2 -17 1 -28 -3 -11 -4 -30 -4 -42 1 -13 5
-23 5 -23 1 0 -8 -52 -8 -67 1 -4 2 -17 1 -28 -3 -11 -4 -30 -4 -42 1 -13 5
-23 5 -23 1 0 -8 -52 -8 -67 1 -4 2 -17 1 -28 -3 -11 -4 -30 -4 -42 1 -13 5
-23 5 -23 1 0 -8 -52 -8 -67 1 -4 2 -17 1 -28 -3 -11 -4 -30 -4 -42 1 -13 5
-23 5 -23 1 0 -5 -15 -7 -32 -5 -40 5 -39 5 -115 1 -37 -2 -63 1 -64 7 0 5 -3
4 -6 -2 -3 -10 -10 -10 -25 -2 -11 6 -18 7 -15 2 3 -4 -21 -8 -54 -8 -32 0
-59 4 -59 10 0 5 -5 4 -12 -3 -8 -8 -15 -9 -25 -1 -7 7 -13 7 -13 2 0 -12 -63
-11 -72 2 -5 6 -8 5 -8 -4 0 -11 -3 -11 -15 -1 -8 7 -15 8 -15 4 0 -13 -153
-11 -162 1 -5 6 -8 5 -8 -3 0 -10 -5 -10 -21 -1 -12 6 -19 7 -16 2 3 -4 -21
-8 -54 -8 -32 0 -59 4 -59 10 0 5 -5 4 -12 -3 -8 -8 -15 -9 -25 -1 -7 7 -13 7
-13 2 0 -12 -63 -11 -72 2 -5 6 -8 5 -8 -4 0 -11 -3 -11 -15 -1 -8 7 -15 8
-15 3 0 -12 -153 -10 -162 2 -5 6 -8 5 -8 -3 0 -10 -5 -10 -21 -1 -12 6 -19 7
-16 2 7 -10 -117 -8 -133 2 -6 4 -10 2 -10 -2 0 -12 -84 -10 -92 2 -5 6 -8 5
-8 -3 0 -10 -5 -10 -21 -1 -12 6 -19 7 -16 2 3 -4 -30 -8 -74 -8 -43 0 -79 4
-79 8 0 5 -4 6 -9 2 -19 -11 -71 -12 -72 -1 0 8 -2 8 -5 0 -4 -10 -62 -10 -91
1 -7 2 -13 1 -13 -3 0 -9 -47 -8 -55 0 -6 5 -79 -8 -81 -14 0 -2 -8 3 -17 11
-10 7 -17 10 -17 5 0 -5 -23 -9 -50 -9 -28 0 -50 4 -50 8 0 5 -4 6 -9 2 -16
-9 -71 -13 -71 -4 0 5 -11 4 -25 -1 -16 -6 -26 -6 -31 1 -4 8 -9 8 -17 0 -7
-7 -14 -7 -23 0 -9 7 -19 7 -33 -1 -16 -8 -27 -8 -43 1 -13 7 -25 11 -28 10
-3 -2 -12 -7 -21 -11 -8 -5 -21 -5 -29 0 -7 4 -23 4 -35 0 -13 -5 -26 -5 -31
0 -5 4 -34 11 -64 14 -30 4 -57 11 -61 17 -3 6 -9 10 -13 9 -15 -4 -73 14 -96
30 -14 9 -33 20 -43 23 -10 4 -16 11 -13 16 3 5 -3 7 -14 4 -13 -3 -20 0 -20
8 0 8 -13 24 -28 36 -57 45 -129 122 -102 109 9 -5 8 -2 -2 7 -10 8 -15 17
-11 20 3 4 1 7 -5 7 -7 0 -12 7 -12 15 0 8 -4 15 -10 15 -5 0 -10 9 -10 20 0
11 -4 20 -9 20 -9 0 -35 82 -36 111 0 9 -5 22 -11 30 -7 10 -10 792 -8 2709 2
1482 4 2701 5 2708 1 6 6 12 10 12 5 0 6 6 3 14 -3 8 0 25 7 38 7 13 12 27 11
32 -2 4 4 19 13 32 8 13 15 30 15 39 0 8 5 15 10 15 6 0 10 6 10 13 0 8 9 22
20 32 11 10 17 21 15 25 -3 4 2 10 10 14 8 3 15 10 15 16 0 15 25 40 40 40 6
0 9 4 6 8 -3 5 8 16 25 26 16 9 29 22 29 27 0 6 4 8 8 5 5 -3 15 4 22 15 8 10
22 19 32 19 10 0 18 5 18 10 0 6 9 10 20 10 11 0 20 4 20 10 0 5 3 9 8 9 27
-4 52 2 46 12 -5 8 3 10 24 7 18 -3 33 0 36 7 2 6 28 13 57 14 30 2 1196 4
2591 5 1395 0 2540 4 2544 9 10 10 16 9 10 -1z"/>
<path d="M3643 8353 c-5 0 -19 -4 -33 -7 -18 -4 -25 -12 -25 -29 0 -14 5 -23
11 -20 13 5 56 -32 47 -41 -3 -3 1 -6 10 -6 10 0 17 -7 17 -15 0 -13 12 -19
32 -16 4 0 5 -6 2 -14 -4 -8 -1 -15 5 -15 6 0 11 5 11 12 0 6 3 8 6 5 4 -4 1
-14 -6 -22 -11 -13 -11 -16 1 -13 8 2 13 -3 12 -9 -2 -7 0 -12 5 -12 20 3 32
-3 32 -17 0 -8 5 -12 10 -9 6 3 10 -1 10 -10 0 -9 3 -14 8 -12 9 6 33 -19 25
-27 -4 -3 1 -6 10 -6 10 0 17 -6 17 -13 0 -7 16 -29 37 -48 20 -18 32 -27 28
-19 -5 8 5 2 22 -15 18 -19 25 -33 19 -37 -6 -4 -1 -8 12 -8 13 0 22 -6 22
-16 0 -11 5 -14 16 -10 12 5 14 1 9 -15 -4 -13 -3 -19 3 -15 9 6 52 -25 55
-41 1 -4 5 -7 10 -5 7 2 11 -14 8 -32 -1 -5 6 -3 15 5 11 9 15 9 10 2 -9 -16
77 -108 92 -99 6 3 14 1 18 -5 4 -8 3 -9 -4 -5 -7 4 -12 3 -12 -3 0 -5 8 -12
18 -15 9 -3 22 -16 27 -28 6 -13 20 -28 32 -34 13 -6 20 -14 16 -17 -3 -4 1
-7 11 -7 9 0 14 -4 11 -10 -3 -5 1 -10 9 -10 9 0 16 -7 16 -16 0 -10 6 -14 14
-11 10 4 13 0 11 -14 -2 -11 0 -17 4 -14 5 3 11 -2 15 -10 3 -8 13 -15 21 -15
9 0 13 -4 10 -10 -3 -5 1 -10 10 -10 9 0 13 -4 10 -10 -3 -5 -1 -10 5 -10 6 0
9 -4 5 -9 -5 -9 32 -27 47 -23 4 1 5 -5 2 -13 -4 -10 0 -15 11 -15 15 0 16 -2
4 -17 -10 -12 -10 -15 -1 -9 14 9 44 -18 34 -30 -4 -5 1 -2 11 5 15 12 17 12
11 -4 -5 -13 -4 -16 4 -11 7 4 12 1 12 -8 0 -15 12 -21 33 -17 5 1 6 -3 3 -8
-8 -12 23 -43 34 -36 5 3 7 -4 5 -15 -3 -15 3 -24 20 -30 14 -5 25 -15 25 -21
0 -6 6 -9 14 -6 10 4 12 -1 9 -16 -4 -18 -3 -19 6 -7 7 10 11 11 11 3 0 -17
36 -53 53 -53 8 0 7 -4 -3 -11 -12 -9 -11 -10 8 -6 12 3 20 1 17 -3 -3 -5 -2
-15 1 -24 5 -13 9 -14 21 -5 8 7 13 8 12 3 -4 -22 2 -34 19 -34 14 0 15 -2 2
-10 -12 -8 -11 -10 7 -10 16 0 21 -4 17 -15 -5 -11 -2 -13 12 -8 10 4 15 2 11
-3 -3 -6 -2 -16 4 -24 7 -13 9 -13 9 0 1 8 5 4 11 -9 6 -15 14 -21 25 -17 8 3
13 2 9 -3 -3 -5 -2 -16 1 -25 5 -13 9 -14 21 -5 8 7 13 8 12 3 -4 -22 2 -34
19 -34 14 0 15 -2 2 -10 -12 -8 -10 -10 9 -10 13 0 22 -3 19 -6 -8 -8 37 -54
53 -54 11 0 11 -2 -1 -10 -12 -8 -10 -10 8 -10 13 0 20 -4 17 -10 -3 -5 2 -10
12 -10 15 0 16 -2 3 -10 -13 -9 -13 -10 0 -11 8 -1 19 -1 23 0 5 1 6 -3 2 -9
-3 -5 -1 -10 5 -10 6 0 8 -5 4 -12 -5 -8 -2 -9 10 -5 14 5 17 3 12 -8 -5 -14
11 -21 38 -16 5 1 4 -4 -3 -13 -9 -11 -9 -16 0 -22 8 -5 10 -3 5 7 -4 8 -1 6
7 -3 8 -10 17 -14 21 -10 4 4 6 0 4 -8 -1 -8 3 -14 10 -12 6 1 11 -1 11 -5 -3
-20 2 -34 10 -28 5 3 12 1 16 -5 10 -17 25 -11 18 7 -5 12 -3 14 8 8 11 -7 12
-6 3 6 -15 20 -16 61 -1 52 9 -5 9 -3 1 8 -14 18 -14 52 0 61 8 6 8 8 0 8 -12
0 -13 59 -1 77 4 6 3 14 -2 18 -13 7 -10 48 4 57 7 5 7 8 -1 8 -13 0 -13 88 0
109 6 9 5 12 -1 8 -14 -9 -12 86 2 95 7 5 6 8 -1 8 -6 0 -11 14 -12 30 0 20 3
28 10 24 7 -5 8 -2 2 7 -13 21 -13 62 0 78 8 11 8 13 0 8 -7 -4 -11 2 -11 18
0 14 4 22 10 18 6 -4 7 -1 1 8 -12 19 -14 108 -3 115 5 3 6 11 2 17 -12 18
-11 141 1 149 7 5 7 8 -1 8 -7 0 -13 7 -13 16 0 9 5 12 13 8 9 -6 9 -4 1 7
-14 18 -14 52 0 61 8 6 8 8 0 8 -12 0 -13 59 -1 77 4 6 3 14 -2 17 -13 8 -11
56 3 56 7 0 8 3 0 8 -13 9 -13 125 0 134 8 5 7 8 0 8 -14 0 -14 62 1 72 7 5 6
8 -1 8 -6 0 -11 14 -12 30 0 20 3 28 10 24 7 -5 8 -2 2 7 -13 21 -13 62 0 78
8 11 8 13 0 8 -7 -4 -11 2 -11 18 0 16 4 22 11 18 8 -5 8 -2 -1 8 -6 8 -10 31
-9 51 2 20 0 41 -3 45 -5 7 -1679 13 -1708 6z m257 -335 c0 -12 -6 -9 -26 13
-19 22 -19 22 4 8 12 -8 22 -17 22 -21z m284 -284 c3 -8 2 -12 -4 -9 -6 3 -10
10 -10 16 0 14 7 11 14 -7z m97 -101 c13 -16 12 -17 -3 -4 -10 7 -18 15 -18
17 0 8 8 3 21 -13z"/>
<path d="M5474 8335 c-2 -11 -3 -35 -1 -52 3 -18 0 -33 -5 -33 -5 0 -6 -5 -2
-12 4 -7 7 -30 6 -52 -2 -23 -2 -47 -2 -53 0 -30 0 -104 -1 -115 0 -7 2 -34 4
-60 2 -32 0 -45 -7 -41 -7 4 -6 1 1 -8 16 -20 17 -31 1 -40 -8 -6 -9 -9 -2 -9
8 0 9 -11 4 -35 -5 -21 -4 -38 2 -41 5 -4 5 -11 -1 -18 -6 -7 -7 -16 -3 -20
10 -11 9 -30 -3 -38 -7 -5 -6 -8 1 -8 8 0 9 -11 4 -35 -4 -19 -4 -37 1 -40 4
-3 4 -16 -1 -29 -5 -13 -6 -27 -3 -30 3 -3 5 -26 4 -51 -1 -25 -1 -52 -1 -60
0 -8 0 -35 0 -60 0 -25 0 -51 0 -57 -1 -7 1 -30 2 -50 2 -21 0 -38 -4 -38 -4
0 -4 -10 0 -22 4 -13 6 -36 5 -53 -4 -35 -4 -40 -2 -99 1 -24 -1 -47 -4 -53
-3 -5 -2 -15 3 -23 5 -8 5 -21 0 -31 -5 -9 -6 -20 -2 -24 10 -10 9 -29 -3 -37
-7 -5 -6 -8 1 -8 8 0 9 -11 4 -35 -4 -19 -4 -37 0 -40 4 -3 4 -21 0 -40 -5
-20 -4 -38 2 -41 5 -4 5 -11 -1 -18 -6 -7 -8 -16 -4 -20 11 -11 12 -36 2 -36
-6 0 -7 -6 -2 -12 9 -17 10 -49 1 -69 -6 -13 -2 -16 22 -15 16 0 27 2 25 4 -2
2 15 22 38 44 23 22 36 37 28 33 -9 -6 -12 -4 -7 3 4 7 14 12 22 12 8 0 14 7
14 15 0 8 6 14 13 13 7 -2 11 5 9 16 -3 15 -1 18 10 10 9 -7 21 -2 41 19 20
21 23 28 10 23 -15 -6 -16 -5 -5 6 7 7 18 13 25 13 7 1 11 6 10 13 -3 11 9 16
29 13 4 0 5 9 3 20 -4 17 -2 19 11 8 12 -10 13 -9 8 6 -5 12 -4 16 3 12 14 -9
37 19 28 33 -4 6 -3 10 2 9 19 -3 34 2 29 10 -3 4 4 17 17 27 12 10 16 12 10
4 -7 -8 -13 -19 -13 -25 0 -5 10 5 21 23 12 17 26 32 31 32 6 0 8 7 5 14 -4
11 -1 13 10 9 12 -5 15 -2 10 10 -4 11 -1 15 13 12 13 -3 17 1 13 11 -3 9 0
14 8 12 7 -2 13 3 14 9 0 16 40 44 49 35 4 -3 4 2 0 12 -5 14 -4 17 4 12 7 -4
12 -2 12 4 0 6 5 8 13 4 8 -6 8 -3 -1 9 -12 14 -11 16 7 12 15 -3 18 0 14 12
-5 12 -3 14 7 8 10 -6 12 -4 7 8 -4 11 -1 15 13 12 13 -3 17 1 13 11 -3 8 -2
14 3 12 5 -2 11 2 12 7 7 21 26 36 38 31 7 -3 16 0 20 6 5 7 2 8 -6 3 -8 -5
-11 -3 -8 6 3 8 11 13 17 12 10 -3 15 10 12 29 0 5 2 7 7 7 19 -3 33 2 27 11
-3 6 1 10 9 10 15 0 21 12 17 34 -1 5 5 3 14 -4 13 -11 14 -10 9 5 -6 14 -4
16 6 10 10 -6 12 -4 7 8 -3 9 -3 16 1 16 20 -3 32 2 32 15 0 7 8 20 18 27 16
13 16 12 3 -6 -8 -11 -1 -6 15 10 16 17 36 37 44 45 14 13 14 14 0 5 -13 -9
-13 -8 -1 8 7 9 20 17 28 17 9 0 13 6 9 15 -3 8 -2 14 2 14 21 -3 32 2 26 13
-5 8 -2 9 11 4 15 -5 16 -4 5 9 -7 9 -9 15 -4 14 20 -3 35 2 29 10 -3 6 8 20
24 32 17 12 28 26 25 30 -3 5 1 6 9 3 8 -3 17 2 21 11 3 10 11 13 18 9 8 -5 7
0 -2 11 -8 10 -10 16 -4 12 12 -7 38 16 28 25 -3 3 7 9 21 12 16 4 23 11 19
18 -5 8 -2 9 10 5 10 -4 15 -3 11 3 -3 6 0 10 7 10 9 0 9 3 -2 10 -12 8 -11
10 8 10 12 0 22 5 22 12 0 17 51 68 67 68 8 0 11 5 8 10 -3 6 -1 10 5 10 6 0
8 5 4 13 -6 9 -4 9 8 -1 14 -12 16 -10 11 10 -3 14 -1 18 4 12 6 -9 11 -8 20
1 10 11 10 15 0 18 -7 3 -2 6 9 6 13 1 24 9 27 22 4 14 11 20 21 16 10 -4 14
0 11 14 -2 11 0 17 6 14 5 -4 9 -1 9 5 0 6 5 8 10 5 6 -3 10 1 10 10 0 12 5
15 16 11 14 -5 15 -4 4 9 -7 8 -8 15 -3 15 15 0 63 47 56 54 -6 6 21 10 40 7
5 -1 6 3 2 9 -3 5 -3 15 1 21 4 8 9 7 15 -2 7 -11 9 -10 9 4 0 12 4 16 13 11
8 -5 8 -2 -2 9 -8 11 -9 17 -3 17 17 0 72 57 64 66 -4 5 1 2 11 -5 15 -12 17
-12 12 1 -4 9 4 21 19 32 35 22 33 32 -11 47 -30 10 -223 13 -881 14 -835 0
-843 0 -848 -20z"/>
<path d="M3465 8214 c-13 -32 -15 -151 -15 -896 0 -570 3 -857 10 -853 6 3 10
1 10 -6 0 -8 4 -8 13 -1 8 7 18 7 27 2 8 -5 21 -5 32 1 11 6 18 6 18 0 0 -5
14 -6 35 -1 22 5 35 4 35 -2 0 -6 8 -4 17 3 15 12 16 12 8 -1 -8 -13 -7 -13 8
-1 9 7 17 9 17 3 0 -6 13 -7 35 -2 22 5 35 4 35 -2 0 -6 8 -4 17 3 15 12 16
12 8 -1 -8 -13 -7 -13 8 -1 9 7 17 9 17 4 0 -10 52 -9 69 2 6 3 11 2 11 -3 0
-6 14 -7 35 -2 22 5 35 4 35 -2 0 -6 8 -4 17 3 15 12 16 12 8 -1 -7 -12 -6
-13 6 -3 9 7 20 8 29 3 8 -5 22 -4 34 2 15 8 21 8 24 -1 3 -9 8 -9 20 1 12 10
16 10 19 1 3 -9 10 -10 24 -3 13 8 19 7 19 0 0 -6 5 -8 13 -3 16 10 41 10 48
-1 4 -5 13 -5 20 0 20 12 39 14 39 3 0 -6 5 -7 12 -3 17 11 108 11 108 0 0 -5
7 -3 15 4 8 7 15 9 15 4 0 -10 86 -9 113 1 10 5 17 3 17 -5 0 -9 4 -9 17 1 13
11 17 11 20 2 3 -9 10 -10 24 -3 14 8 19 7 19 -2 0 -9 3 -9 10 2 5 8 10 10 10
4 0 -6 15 -10 38 -8 20 2 37 3 37 4 0 1 10 3 23 4 12 2 22 -1 22 -6 0 -4 5 -8
11 -8 5 0 8 4 5 8 -3 5 1 9 9 9 8 0 12 -5 8 -10 -3 -5 4 -4 16 2 11 7 21 8 21
2 0 -5 14 -6 35 -1 22 5 35 4 35 -2 0 -6 8 -4 17 3 15 12 16 12 8 -1 -8 -13
-7 -13 8 -1 9 7 17 9 17 3 0 -6 13 -7 35 -2 22 5 35 4 35 -2 0 -6 8 -4 17 3
15 12 16 12 8 -1 -8 -13 -7 -13 8 -1 9 7 17 9 17 4 0 -5 13 -8 30 -5 18 2 28
9 24 16 -3 6 1 3 9 -6 11 -14 16 -15 27 -5 10 10 11 9 5 -3 -8 -13 -7 -13 8
-1 9 7 17 9 17 4 0 -5 17 -7 38 -4 20 2 31 6 25 8 -7 3 -13 11 -13 19 0 8 -4
14 -10 14 -5 0 -10 6 -10 14 0 10 -7 13 -21 11 -17 -4 -19 -2 -8 11 10 12 9
13 -5 8 -9 -4 -16 -2 -14 2 2 5 -7 22 -19 38 -13 16 -23 25 -23 21 0 -5 8 -18
18 -29 17 -21 17 -21 -5 -2 -13 11 -23 25 -23 33 0 7 -7 16 -15 19 -8 4 -13
10 -10 15 3 4 -4 6 -16 4 -18 -4 -19 -2 -7 12 9 12 9 15 1 9 -8 -4 -17 2 -24
18 -8 16 -18 23 -31 21 -10 -2 -16 0 -13 5 3 4 2 15 -1 24 -5 14 -9 14 -22 4
-11 -9 -14 -9 -9 -1 11 18 -14 54 -29 42 -8 -7 -11 -3 -10 13 1 17 -4 22 -18
20 -11 -2 -15 1 -11 7 3 6 1 11 -5 11 -6 0 -8 5 -5 10 4 6 1 9 -7 8 -7 -2 -12
3 -10 11 3 12 0 12 -13 1 -13 -11 -14 -10 -9 5 6 14 4 16 -6 10 -10 -6 -12 -3
-7 14 4 17 3 20 -8 11 -9 -8 -15 -3 -25 20 -10 25 -15 28 -27 18 -8 -6 -13 -7
-12 -2 0 5 -2 20 -6 32 -6 18 -10 20 -16 10 -7 -11 -9 -11 -9 0 0 16 -24 42
-39 42 -6 0 -8 8 -4 18 3 9 3 14 -2 10 -4 -4 -21 9 -36 29 -16 20 -29 32 -29
27 0 -5 -5 -1 -11 9 -5 9 -18 17 -27 17 -15 0 -15 2 -2 10 12 8 11 10 -7 10
-13 0 -22 3 -22 8 1 4 1 14 0 22 -1 12 -3 12 -10 2 -6 -10 -11 -5 -21 17 -7
17 -19 31 -26 31 -8 0 -14 5 -14 10 0 6 -6 10 -14 10 -8 0 -18 4 -21 10 -3 6
2 8 12 5 10 -3 8 0 -4 6 -13 7 -23 19 -23 27 0 12 -3 12 -15 2 -12 -10 -13 -8
-10 10 2 13 2 20 -2 17 -3 -3 -12 1 -20 9 -8 8 -19 12 -24 9 -5 -4 -6 0 -3 8
3 8 -2 17 -10 20 -9 4 -16 14 -16 24 0 15 -2 16 -10 3 -8 -13 -10 -12 -10 4 0
12 -5 16 -15 12 -8 -3 -14 -2 -13 2 5 18 -14 50 -32 55 -11 3 -20 12 -20 21 0
9 -5 16 -11 16 -5 0 -7 -5 -3 -12 4 -7 3 -8 -4 -4 -6 4 -8 14 -5 23 4 11 3 14
-5 9 -7 -4 -12 -1 -12 8 0 9 -3 15 -7 15 -28 -5 -35 1 -22 19 7 9 9 14 5 10
-5 -4 -16 -2 -24 5 -13 10 -14 9 -7 -2 5 -10 4 -12 -4 -7 -9 6 -9 11 0 22 10
12 9 13 -5 8 -11 -4 -16 -1 -16 11 0 11 -5 15 -15 11 -11 -4 -19 3 -25 19 -5
14 -14 25 -20 25 -6 0 -8 5 -5 10 3 6 1 10 -4 10 -16 0 -51 33 -51 47 0 7 -5
13 -11 13 -7 0 -22 11 -34 24 -13 14 -25 22 -29 19 -3 -3 -4 4 -1 15 2 14 -1
19 -10 16 -15 -6 -55 33 -55 53 0 7 -7 13 -16 13 -8 0 -12 5 -9 10 3 6 -1 10
-10 10 -11 0 -15 5 -12 14 4 10 0 14 -13 11 -11 -2 -19 -1 -19 3 1 4 1 14 0
22 -1 13 -2 13 -12 0 -9 -12 -10 -11 -6 7 3 15 1 20 -9 16 -9 -3 -14 1 -14 12
0 9 -4 13 -10 10 -5 -3 -10 -2 -10 4 0 5 -9 13 -21 16 -16 5 -18 10 -9 20 10
11 8 13 -9 10 -11 -2 -20 -1 -20 3 1 4 1 14 0 22 -1 13 -2 13 -12 0 -9 -12
-10 -11 -6 8 3 12 1 20 -4 16 -10 -6 -41 9 -40 19 1 4 -2 7 -6 7 -5 1 -16 15
-25 33 -9 18 -17 28 -18 24 0 -4 -6 -2 -14 5 -8 7 -12 16 -10 19 6 10 -26 20
-39 12 -7 -4 -6 1 2 10 12 15 11 17 -3 17 -9 0 -22 -16 -31 -36z m1206 -1151
c13 -16 12 -17 -3 -4 -10 7 -18 15 -18 17 0 8 8 3 21 -13z m569 -583 c0 -5 -5
-10 -11 -10 -5 0 -7 5 -4 10 3 6 8 10 11 10 2 0 4 -4 4 -10z"/>
<path d="M7287 8211 c-10 -12 -9 -13 2 -6 10 6 12 4 7 -4 -5 -7 -15 -10 -23
-7 -8 4 -11 1 -7 -5 6 -10 -34 -46 -47 -42 -4 1 -5 -8 -2 -20 4 -18 3 -19 -6
-7 -10 15 -12 13 -15 -12 -1 -7 -9 -12 -19 -12 -9 1 -14 -2 -11 -7 3 -5 0 -9
-5 -9 -6 0 -11 -5 -11 -11 0 -5 5 -7 12 -3 7 5 8 3 4 -5 -5 -7 -10 -10 -13 -7
-11 10 -45 -16 -39 -30 3 -7 2 -13 -2 -13 -4 1 -16 1 -27 0 -17 -1 -18 -3 -5
-11 13 -8 13 -10 -1 -10 -10 0 -32 -17 -50 -37 -18 -21 -37 -37 -42 -35 -5 1
-6 -2 -2 -8 7 -12 -19 -42 -29 -33 -3 4 -6 2 -7 -3 -2 -24 -8 -46 -15 -52 -4
-4 -4 1 -1 11 8 22 -6 22 -24 0 -12 -14 -12 -16 1 -9 8 4 4 -1 -10 -12 -13
-11 -28 -18 -32 -16 -4 3 -5 -2 -2 -10 3 -9 1 -16 -5 -16 -6 0 -9 -6 -7 -12 1
-7 1 -10 -1 -5 -9 14 -25 7 -19 -9 3 -8 2 -12 -3 -9 -5 3 -12 1 -16 -5 -4 -6
-11 -8 -16 -4 -5 3 -9 2 -8 -3 4 -23 -2 -35 -16 -29 -8 3 -14 0 -12 -7 1 -7
-4 -11 -11 -9 -8 1 -11 -2 -7 -8 3 -6 0 -17 -9 -25 -11 -11 -16 -12 -19 -2 -5
11 -11 -18 -8 -36 1 -5 -3 -6 -8 -3 -5 3 -12 -1 -15 -10 -3 -9 -13 -14 -21
-11 -10 4 -12 1 -8 -10 5 -12 3 -14 -7 -8 -10 6 -12 4 -7 -9 6 -14 3 -17 -9
-12 -12 5 -15 2 -10 -11 4 -10 4 -15 1 -12 -3 4 -21 -9 -40 -28 -22 -22 -39
-32 -47 -27 -9 6 -9 3 1 -9 12 -15 12 -17 -4 -11 -13 5 -16 4 -11 -4 4 -7 1
-12 -9 -12 -9 0 -14 -4 -11 -9 7 -11 -18 -33 -27 -24 -4 3 -8 1 -8 -5 -5 -40
-17 -56 -34 -42 -11 10 -13 8 -10 -9 2 -11 1 -20 -3 -20 -20 3 -32 -2 -27 -11
6 -9 -8 -14 -28 -11 -5 1 -6 -3 -2 -9 4 -6 -7 -26 -24 -46 -17 -19 -31 -29
-31 -23 0 16 -15 1 -15 -14 -1 -7 -7 -11 -14 -9 -8 2 -11 -3 -8 -12 4 -9 1
-15 -6 -13 -7 1 -11 -5 -11 -14 1 -10 -6 -16 -20 -15 -12 1 -21 -5 -21 -14 -1
-8 -7 -14 -14 -12 -7 1 -9 -2 -6 -8 4 -7 -2 -14 -14 -17 -12 -3 -21 -10 -21
-15 0 -5 6 -6 13 -3 6 4 3 -1 -7 -9 -11 -9 -26 -16 -33 -16 -7 0 -12 -6 -11
-12 2 -7 -3 -12 -9 -10 -7 1 -13 -2 -13 -7 0 -19 -70 -82 -83 -75 -7 5 -7 1 2
-9 8 -10 11 -20 7 -24 -3 -3 -6 0 -6 7 0 13 -54 -38 -55 -52 0 -3 -4 -10 -9
-15 -5 -4 -6 -3 -2 4 3 6 1 15 -5 19 -8 4 -9 3 -5 -4 9 -15 -31 -55 -47 -45
-7 4 -5 -2 3 -12 8 -10 10 -16 3 -12 -7 4 -14 -1 -18 -13 -3 -11 -10 -20 -15
-20 -14 0 -60 -46 -60 -60 0 -10 -4 -9 -17 1 -9 8 -14 9 -10 2 4 -6 4 -19 1
-28 -5 -13 -8 -14 -15 -3 -7 10 -9 9 -9 -5 0 -11 -4 -15 -12 -11 -8 5 -9 2 -5
-10 5 -11 3 -15 -5 -10 -8 5 -9 2 -4 -11 5 -15 4 -16 -9 -5 -12 10 -15 10 -15
-1 0 -13 -78 -89 -92 -89 -4 0 -5 -9 -3 -21 4 -17 2 -19 -10 -9 -8 7 -16 10
-16 6 -1 -3 -2 -9 -3 -13 -3 -19 -18 -33 -28 -27 -7 4 -8 2 -4 -4 4 -6 13 -9
21 -5 8 3 15 0 15 -7 0 -9 4 -9 17 1 13 11 17 11 21 1 3 -10 7 -10 19 -1 11 9
16 10 22 1 4 -7 18 -8 44 -3 21 5 37 5 37 0 0 -5 5 -9 11 -9 5 0 8 4 5 8 -2 4
4 8 15 8 10 0 19 -3 19 -7 0 -4 16 -3 35 1 22 5 35 4 35 -2 0 -6 8 -4 17 3 15
12 16 12 8 -1 -7 -12 -6 -13 6 -3 9 7 20 8 29 3 8 -5 22 -4 34 2 15 8 21 8 24
-1 3 -9 8 -9 20 1 12 10 16 10 19 1 3 -9 10 -10 24 -3 13 8 19 7 19 0 0 -6 5
-8 13 -3 16 10 41 10 48 -1 4 -5 13 -5 20 0 20 12 39 14 39 3 0 -6 5 -7 12 -3
17 11 108 11 108 0 0 -5 7 -3 15 4 8 7 15 9 15 4 0 -10 86 -9 113 1 10 5 17 3
17 -5 0 -9 4 -9 17 1 13 11 17 11 20 2 3 -9 10 -10 24 -3 14 8 19 7 19 -2 0
-9 3 -9 10 2 5 8 10 10 10 4 0 -6 15 -10 38 -8 20 2 37 3 37 4 0 1 10 3 23 4
12 2 22 -1 22 -6 0 -4 5 -8 11 -8 5 0 8 4 5 8 -3 5 1 9 9 9 8 0 12 -5 8 -10
-3 -5 4 -4 16 2 11 7 21 8 21 2 0 -5 14 -6 35 -1 22 5 35 4 35 -2 0 -6 8 -4
17 3 15 12 16 12 8 -1 -8 -13 -7 -13 8 -1 9 7 17 9 17 3 0 -6 13 -7 35 -2 22
5 35 4 35 -2 0 -6 8 -4 17 3 15 12 16 12 8 -1 -8 -13 -7 -13 8 -1 9 7 17 9 17
4 0 -5 13 -8 30 -5 18 2 28 9 24 16 -3 6 1 3 9 -6 11 -14 16 -15 27 -5 10 10
11 9 5 -3 -8 -13 -7 -13 8 -1 9 7 17 9 17 3 0 -6 13 -7 35 -2 22 5 35 4 35 -2
0 -6 6 -5 15 2 12 10 15 10 15 -1 0 -9 3 -10 11 -2 6 6 23 8 44 3 18 -4 39 -4
46 1 7 4 17 5 21 3 12 -8 10 1697 -2 1733 -12 32 -33 38 -53 14z m-217 -234
c0 -2 -12 -14 -27 -28 l-28 -24 24 28 c23 25 31 32 31 24z"/>
<path d="M3880 7866 c0 -2 8 -10 18 -17 15 -13 16 -12 3 4 -13 16 -21 21 -21
13z"/>
<path d="M6759 7833 l-24 -28 28 24 c15 14 27 26 27 28 0 8 -8 1 -31 -24z"/>
<path d="M6579 7503 c-13 -16 -12 -17 4 -4 9 7 17 15 17 17 0 8 -8 3 -21 -13z"/>
<path d="M6329 7253 c-13 -16 -12 -17 4 -4 9 7 17 15 17 17 0 8 -8 3 -21 -13z"/>
<path d="M5476 6562 c-3 -5 1 -9 9 -9 8 0 12 4 9 9 -3 4 -7 8 -9 8 -2 0 -6 -4
-9 -8z"/>
<path d="M3650 6359 c0 -5 -5 -7 -12 -3 -6 4 -8 3 -4 -4 3 -6 2 -13 -4 -17 -5
-3 -10 -2 -10 3 0 15 -28 23 -36 10 -5 -7 -2 -8 6 -3 9 6 11 4 6 -4 -6 -9 -12
-8 -26 4 -17 15 -19 15 -29 -2 -10 -17 -10 -17 -11 2 -1 11 -4 15 -6 8 -4 -8
-14 -9 -35 -3 -27 8 -29 7 -18 -6 10 -12 9 -13 -5 -8 -15 6 -16 -60 -16 -845
0 -743 2 -855 15 -889 9 -21 22 -39 30 -39 8 0 12 4 9 9 -3 4 0 8 6 8 6 0 8 4
5 10 -3 5 0 7 8 4 8 -3 18 0 23 7 5 8 3 10 -7 4 -8 -5 4 10 25 33 22 22 44 38
49 35 6 -4 8 0 4 10 -3 9 -3 16 1 15 14 -3 42 14 37 22 -3 5 4 12 16 15 11 4
18 9 16 12 -10 9 34 44 46 36 7 -4 6 1 -3 13 -8 10 -10 16 -6 12 5 -4 15 0 23
10 10 11 12 12 8 2 -4 -8 2 -4 13 10 11 13 18 28 16 32 -3 4 3 5 12 1 11 -4
15 -2 11 4 -4 6 0 14 9 17 8 3 12 10 9 16 -3 6 1 7 10 4 10 -4 15 -2 13 7 -2
8 3 13 11 11 9 -2 11 3 7 13 -3 9 -2 13 4 10 5 -3 14 4 20 15 6 11 16 17 22
14 8 -5 9 -1 5 10 -4 9 -3 15 2 12 5 -3 12 1 15 10 4 10 12 14 22 10 15 -6 15
-4 3 11 -9 11 -10 14 -1 9 7 -4 12 -2 12 4 0 7 7 9 16 6 15 -6 15 -4 3 11 -9
11 -10 14 -1 9 7 -4 15 -1 18 9 4 9 13 14 22 10 13 -5 13 -3 1 12 -7 10 -10
15 -6 12 4 -4 26 11 48 32 23 22 46 36 52 32 7 -4 7 -1 -1 9 -10 13 -10 18 -1
24 8 5 10 3 4 -7 -5 -8 5 0 21 16 16 17 28 35 25 40 -3 6 4 3 14 -5 11 -9 16
-10 11 -2 -10 16 20 46 36 36 9 -5 8 -2 -1 9 -12 15 -12 17 4 11 10 -4 16 -3
13 2 -6 11 48 64 57 55 4 -3 5 1 3 9 -2 8 3 14 10 12 8 -1 11 2 7 8 -3 5 5 14
19 20 15 5 26 13 25 17 -3 17 1 33 9 32 20 -3 32 2 29 14 -1 6 4 11 10 10 7
-2 12 3 10 10 -1 6 4 11 10 10 7 -2 12 3 10 10 -1 6 6 11 16 11 14 -2 15 1 6
13 -7 8 -8 13 -3 11 13 -4 74 57 74 74 0 10 3 9 10 -2 9 -14 14 -7 11 13 -1 4
6 10 14 13 8 3 12 10 9 15 -3 5 -2 9 3 8 20 -3 33 2 30 14 -1 6 4 11 11 9 8
-1 11 2 8 7 -3 5 1 14 9 21 12 10 15 10 15 0 0 -8 3 -10 6 -7 4 4 1 14 -7 24
-9 10 -9 14 -2 10 7 -5 21 1 33 13 11 11 26 20 33 20 9 0 9 2 -1 9 -11 7 -10
10 3 15 9 3 20 4 24 1 5 -2 7 6 6 19 -2 16 2 23 14 23 34 0 40 3 35 17 -4 9 6
20 25 31 17 8 31 20 31 26 0 14 26 39 33 32 4 -3 5 4 2 16 -2 11 0 21 6 21 5
0 9 -6 9 -12 0 -7 8 2 16 20 9 17 22 32 29 32 7 0 16 7 19 16 3 8 10 13 15 9
6 -3 8 4 6 16 -4 17 -2 19 10 9 12 -10 15 -8 16 11 0 13 3 18 6 11 3 -9 13 -2
29 20 14 18 27 31 30 30 3 -2 9 0 12 4 4 4 1 4 -5 0 -7 -4 -13 -2 -13 3 0 6 6
11 14 11 19 0 47 40 39 54 -3 6 0 5 8 -1 7 -7 18 -13 24 -13 5 0 4 4 -4 9 -11
7 -9 11 8 21 13 6 20 18 17 25 -3 9 0 12 10 8 9 -3 14 1 14 12 0 14 3 15 14 6
11 -9 14 -8 12 6 0 10 4 18 11 18 6 0 15 4 20 9 5 6 2 6 -6 1 -11 -6 -13 -4
-8 8 5 14 2 15 -19 7 -17 -7 -23 -7 -19 0 3 6 1 10 -5 10 -6 0 -8 5 -4 12 4 7
3 8 -5 4 -6 -4 -8 -12 -5 -18 5 -7 1 -9 -9 -5 -9 3 -19 2 -23 -4 -4 -7 -13 -4
-24 6 -15 14 -18 14 -30 0 -8 -10 -17 -12 -24 -6 -6 5 -28 8 -48 7 -21 -2 -35
0 -33 4 2 4 -2 7 -10 7 -8 0 -12 -4 -10 -8 3 -4 -2 -10 -11 -13 -9 -4 -13 -2
-8 5 4 7 -1 9 -15 4 -15 -4 -20 -2 -18 7 2 7 2 10 0 5 -3 -4 -10 -4 -15 -1 -6
4 -8 2 -4 -4 3 -6 2 -13 -4 -17 -5 -3 -10 -2 -10 3 0 15 -28 23 -36 10 -5 -7
-2 -8 6 -3 9 6 11 4 6 -4 -6 -9 -12 -8 -26 4 -17 15 -19 15 -29 -2 -10 -17
-10 -17 -11 2 -1 11 -4 15 -6 9 -3 -7 -14 -10 -24 -7 -13 3 -20 0 -20 -8 -1
-8 -8 -3 -16 11 -8 14 -13 18 -10 9 3 -12 -2 -16 -19 -16 -13 0 -22 5 -21 11
2 6 1 8 -1 3 -3 -4 -10 -4 -15 -1 -6 4 -8 2 -4 -4 3 -6 2 -13 -4 -17 -5 -3
-10 -2 -10 3 0 15 -28 23 -36 10 -5 -7 -2 -8 6 -3 9 6 11 4 6 -4 -6 -9 -12 -8
-26 4 -17 15 -19 15 -29 -2 -10 -17 -10 -17 -11 2 -1 11 -4 15 -6 9 -3 -7 -14
-10 -24 -7 -13 3 -20 0 -20 -8 -1 -8 -8 -3 -16 11 -8 14 -13 17 -10 8 3 -9 -2
-19 -11 -22 -11 -5 -14 -2 -9 9 3 10 2 13 -5 10 -5 -4 -17 -1 -26 7 -9 7 -14
8 -10 2 4 -7 0 -15 -9 -18 -21 -8 -26 -8 -20 2 3 5 -1 9 -9 9 -8 0 -12 -4 -10
-8 3 -4 -2 -10 -11 -13 -8 -3 -12 -2 -9 4 4 6 -12 8 -39 6 -25 -2 -44 0 -41 4
2 4 -2 7 -10 7 -8 0 -12 -4 -10 -8 3 -4 -2 -10 -11 -13 -9 -4 -13 -2 -8 5 4 8
-1 9 -17 4 -22 -7 -23 -7 -9 11 14 18 14 18 -4 4 -11 -8 -21 -13 -23 -12 -3 2
-8 0 -11 -4 -4 -4 -1 -4 7 1 10 6 12 4 7 -4 -6 -9 -12 -8 -26 4 -14 12 -20 13
-26 4 -5 -8 -3 -10 6 -4 9 6 11 4 6 -4 -6 -9 -12 -8 -26 4 -17 15 -19 15 -29
-2 -10 -17 -10 -17 -11 2 -1 11 -4 15 -6 9 -3 -7 -14 -10 -24 -7 -13 3 -20 0
-20 -8 -1 -8 -8 -3 -16 11 -8 14 -13 18 -10 9 3 -12 -2 -16 -19 -16 -13 0 -22
5 -21 11 2 6 1 8 -1 3 -3 -4 -10 -4 -15 -1 -6 4 -8 2 -4 -4 3 -6 2 -13 -4 -17
-5 -3 -10 -2 -10 3 0 15 -28 23 -36 10 -5 -7 -2 -8 6 -3 9 6 11 4 6 -4 -6 -9
-12 -8 -26 4 -17 15 -19 15 -29 -2 -10 -17 -10 -17 -11 1 0 18 -1 18 -19 2
-11 -10 -21 -13 -25 -7 -3 5 -24 8 -46 7 -22 -2 -37 0 -35 4 2 4 -2 7 -10 7
-8 0 -12 -4 -10 -8 3 -4 -2 -10 -11 -13 -9 -4 -13 -2 -8 5 4 7 -1 9 -15 4 -16
-5 -20 -3 -15 9 3 9 3 16 0 16 -3 0 -6 -5 -6 -11z"/>
<path d="M5690 6356 c-8 -11 -18 -12 -36 -5 -14 5 -23 5 -20 0 3 -5 -6 -8 -20
-8 -41 0 -52 -20 -19 -33 15 -6 25 -13 21 -17 -8 -9 14 -34 25 -27 5 3 9 2 8
-3 -1 -4 -1 -15 0 -23 1 -13 2 -13 11 0 9 13 10 13 10 0 0 -22 47 -63 61 -54
8 4 9 3 5 -4 -8 -14 17 -55 27 -45 4 3 7 1 7 -6 0 -7 5 -9 12 -5 7 4 8 3 4 -5
-4 -6 0 -14 8 -17 9 -3 16 -13 16 -21 0 -12 3 -13 14 -4 12 10 13 8 9 -8 -4
-17 -1 -19 17 -16 18 3 20 2 10 -10 -10 -12 -9 -15 4 -15 9 0 19 -7 22 -15 4
-8 10 -12 15 -9 5 3 9 -5 9 -18 0 -18 2 -20 10 -8 8 12 10 10 10 -8 0 -13 4
-21 9 -18 5 3 12 -1 15 -9 3 -8 9 -15 13 -14 21 3 24 -2 12 -18 -12 -15 -12
-16 3 -11 10 4 19 1 22 -8 4 -9 11 -12 18 -8 9 6 9 3 0 -9 -12 -14 -11 -16 7
-12 16 3 21 -1 21 -16 0 -11 5 -17 10 -14 6 3 10 -1 10 -9 0 -9 7 -16 16 -16
8 0 12 -4 9 -10 -3 -5 3 -10 14 -10 15 0 19 -5 16 -21 -4 -18 -2 -19 12 -7 11
8 14 9 10 1 -5 -7 2 -19 18 -29 14 -9 25 -23 25 -30 0 -8 6 -13 13 -11 6 1 11
-4 10 -10 -2 -7 4 -13 13 -13 8 0 12 -4 9 -10 -3 -5 3 -10 14 -10 14 0 19 -5
16 -19 -2 -13 1 -18 9 -15 8 3 16 -3 20 -13 6 -15 9 -15 17 -3 8 11 9 9 4 -9
-5 -16 -4 -21 4 -17 6 4 11 0 11 -8 0 -9 7 -16 16 -16 8 0 12 -4 9 -10 -5 -9
15 -15 37 -11 4 0 4 -7 1 -16 -5 -12 -3 -14 7 -8 8 5 11 4 7 -2 -6 -10 26 -55
38 -53 3 0 12 -6 20 -14 11 -11 12 -16 2 -19 -7 -3 -6 -6 5 -6 9 -1 19 5 22
12 3 6 3 1 0 -13 -4 -14 -3 -22 1 -18 7 7 36 -21 65 -61 10 -15 16 -17 22 -8
5 8 8 7 8 -5 0 -10 5 -18 10 -18 6 0 10 -7 10 -15 0 -8 7 -15 15 -15 8 0 22
-12 32 -27 21 -34 34 -44 47 -36 5 3 6 1 2 -6 -4 -6 0 -14 9 -17 14 -6 14 -9
3 -16 -9 -7 -7 -8 9 -5 12 3 21 2 20 -2 -1 -3 22 -30 51 -59 50 -51 65 -71 40
-56 -7 4 -8 3 -4 -5 6 -9 11 -9 22 0 12 10 15 10 12 -2 -2 -8 3 -13 11 -11 12
3 12 1 1 -15 -8 -10 -10 -15 -6 -11 5 5 16 -1 24 -13 8 -11 20 -18 29 -15 8 3
11 1 8 -4 -8 -13 22 -43 34 -35 5 3 13 0 17 -6 4 -8 3 -9 -4 -5 -7 4 -12 2
-12 -3 0 -6 8 -11 17 -11 9 0 14 -3 10 -6 -7 -7 38 -54 53 -54 9 0 14 -14 11
-32 0 -4 6 -5 14 -2 10 4 15 0 15 -11 0 -9 5 -13 10 -10 6 3 10 0 10 -8 0 -8
8 -21 18 -28 16 -13 16 -13 2 6 -14 19 -14 19 3 6 9 -7 17 -20 17 -27 0 -7 11
-21 25 -30 14 -9 22 -20 19 -25 -3 -5 2 -6 10 -3 11 4 16 0 16 -15 0 -12 6
-21 15 -21 8 0 15 -5 15 -11 0 -5 5 -7 10 -4 6 3 10 -4 11 -17 0 -13 3 -18 6
-11 6 17 32 -7 26 -25 -3 -8 0 -10 10 -6 36 13 37 54 37 927 0 824 -1 859 -18
844 -17 -15 -20 -15 -36 1 -11 9 -16 12 -12 6 8 -15 -21 -27 -30 -12 -4 7 -3
8 4 4 17 -10 15 -1 -4 14 -12 11 -15 11 -12 -1 2 -9 -4 -13 -15 -11 -10 2 -24
-2 -32 -8 -10 -8 -15 -8 -21 1 -4 8 -3 9 4 5 17 -10 15 -1 -4 14 -8 8 -14 9
-12 4 3 -10 -4 -14 -28 -14 -9 0 -12 5 -8 12 4 7 3 8 -5 4 -6 -4 -8 -12 -5
-18 5 -7 1 -9 -9 -5 -9 3 -19 2 -23 -4 -4 -7 -13 -4 -24 6 -15 14 -18 14 -30
0 -8 -10 -17 -12 -24 -6 -6 5 -28 8 -48 7 -21 -2 -35 0 -33 4 2 4 -2 7 -10 7
-8 0 -12 -4 -10 -8 3 -4 -2 -10 -11 -13 -9 -4 -13 -2 -8 5 4 7 -1 9 -15 4 -15
-4 -20 -2 -18 7 2 7 2 10 0 5 -3 -4 -10 -4 -15 -1 -6 4 -8 2 -4 -4 3 -6 2 -13
-4 -17 -5 -3 -10 -2 -10 3 0 15 -28 23 -36 10 -5 -7 -2 -8 6 -3 9 6 11 4 6 -4
-6 -9 -12 -8 -26 4 -17 15 -19 15 -29 -2 -10 -17 -10 -17 -11 2 -1 11 -4 15
-6 9 -3 -7 -14 -10 -24 -7 -13 3 -20 0 -20 -8 -1 -8 -8 -3 -16 11 -8 14 -13
18 -10 9 3 -12 -2 -16 -19 -16 -13 0 -22 5 -21 11 2 6 1 8 -1 3 -3 -4 -10 -4
-15 -1 -6 4 -8 2 -4 -4 3 -6 2 -13 -4 -17 -5 -3 -10 -2 -10 3 0 15 -28 23 -36
10 -5 -7 -2 -8 6 -3 9 6 11 4 6 -4 -6 -9 -12 -8 -26 4 -17 15 -19 15 -29 -2
-10 -17 -10 -17 -11 2 -1 11 -4 15 -6 9 -3 -7 -14 -10 -24 -7 -13 3 -20 0 -20
-8 -1 -8 -8 -3 -16 11 -8 14 -13 17 -10 8 3 -9 -2 -19 -11 -22 -11 -5 -14 -2
-9 9 3 10 2 13 -5 10 -5 -4 -17 -1 -26 7 -9 7 -14 8 -10 2 4 -7 0 -15 -9 -18
-21 -8 -26 -8 -20 2 3 5 -1 9 -9 9 -8 0 -12 -4 -10 -8 3 -4 -2 -10 -11 -13 -8
-3 -12 -2 -9 4 4 6 -12 8 -39 6 -25 -2 -44 0 -41 4 2 4 -2 7 -10 7 -8 0 -12
-4 -10 -8 3 -4 -2 -10 -11 -13 -9 -4 -13 -2 -8 5 4 8 -1 9 -17 4 -22 -7 -23
-7 -9 10 13 17 13 18 0 10 -8 -6 -18 -10 -22 -10 -3 0 -10 -4 -15 -9 -5 -5 -2
-6 6 -1 10 6 12 4 7 -4 -6 -9 -12 -8 -26 4 -14 12 -20 13 -26 4 -5 -8 -3 -10
6 -4 9 6 11 4 6 -4 -6 -9 -12 -8 -26 4 -17 15 -19 15 -29 -2 -10 -17 -10 -17
-11 2 -1 11 -4 15 -6 9 -3 -7 -14 -10 -24 -7 -13 3 -20 0 -20 -8 -1 -8 -8 -3
-16 11 -8 14 -13 18 -10 9 3 -12 -2 -16 -19 -16 -13 0 -22 5 -21 11 2 6 1 8
-1 3 -3 -4 -10 -4 -15 -1 -6 4 -8 2 -4 -4 3 -6 2 -13 -4 -17 -5 -3 -10 -2 -10
3 0 15 -28 23 -36 10 -5 -7 -2 -8 6 -3 9 6 11 4 6 -4 -6 -9 -12 -8 -26 4 -17
15 -19 15 -29 -2 -10 -17 -10 -17 -11 0 0 10 -5 15 -10 12 -6 -4 -8 -11 -5
-16 3 -5 -1 -6 -9 -3 -9 3 -16 11 -16 17 0 6 -6 3 -13 -8 -11 -14 -16 -15 -22
-5 -5 8 -4 11 2 7 5 -3 10 0 10 8 0 19 -2 19 -17 1z m1237 -1362 c-3 -3 -12
-4 -19 -1 -8 3 -5 6 6 6 11 1 17 -2 13 -5z"/>
<path d="M5337 6243 c4 -10 2 -14 -5 -9 -6 3 -17 -3 -25 -14 -7 -11 -17 -17
-21 -12 -4 4 -6 0 -4 -8 2 -9 -3 -14 -11 -12 -12 3 -12 0 -1 -13 11 -13 10
-15 -3 -9 -10 3 -20 -2 -27 -15 -6 -12 -17 -21 -25 -21 -7 0 -19 -13 -27 -30
-12 -29 -21 -35 -43 -30 -5 1 -7 -2 -3 -6 5 -4 -1 -13 -12 -21 -11 -8 -20 -21
-20 -29 0 -9 -5 -12 -12 -8 -8 5 -9 2 -4 -11 6 -16 4 -16 -11 -4 -10 7 -15 9
-11 5 5 -5 -1 -16 -12 -23 -11 -8 -18 -19 -15 -24 4 -5 -4 -9 -17 -9 -18 0
-20 -2 -8 -10 13 -8 12 -10 -3 -10 -11 0 -15 -4 -11 -12 5 -8 2 -9 -12 -4 -10
4 -15 4 -12 0 10 -9 -10 -44 -25 -44 -19 0 -49 -39 -40 -53 4 -7 -2 -6 -13 3
-10 8 -16 11 -13 7 8 -10 -32 -55 -43 -50 -4 2 -5 -2 -2 -10 3 -8 0 -18 -7
-23 -8 -5 -10 -3 -4 6 6 9 4 11 -4 6 -7 -5 -10 -15 -6 -23 5 -14 3 -14 -12 -2
-9 8 -14 9 -10 3 4 -7 0 -14 -8 -18 -8 -3 -15 -13 -15 -23 0 -15 -2 -16 -10
-3 -8 13 -10 12 -11 -5 -1 -11 -1 -24 0 -29 1 -5 -5 -4 -13 4 -14 10 -16 10
-17 -6 -1 -11 -1 -23 0 -28 1 -5 -6 -3 -16 4 -10 8 -15 10 -11 6 11 -13 -12
-37 -26 -29 -6 4 -4 -2 4 -12 14 -17 13 -18 -2 -12 -12 4 -18 2 -18 -8 0 -8
-7 -15 -16 -15 -8 0 -13 -4 -10 -9 3 -5 -4 -11 -15 -14 -12 -3 -18 -10 -15
-16 4 -5 -3 -12 -14 -16 -11 -3 -20 -11 -20 -16 0 -6 -4 -7 -10 -4 -6 4 -7 -1
-3 -11 4 -12 3 -15 -5 -10 -7 4 -12 1 -12 -8 0 -9 -5 -16 -11 -16 -5 0 -7 6
-3 13 4 7 3 9 -2 4 -5 -5 -10 -13 -10 -18 -1 -5 -2 -14 -3 -20 0 -5 -4 -8 -8
-6 -11 7 -33 -19 -25 -29 4 -4 -1 -4 -11 -1 -11 4 -16 3 -12 -3 3 -6 1 -10 -5
-10 -6 0 -8 -5 -4 -12 5 -8 2 -9 -12 -4 -10 4 -15 4 -12 0 13 -12 -12 -44 -35
-44 -18 0 -19 -2 -7 -10 11 -7 11 -10 2 -10 -7 0 -10 -5 -6 -12 5 -7 3 -8 -5
-3 -13 8 -81 -56 -81 -76 0 -5 -4 -7 -10 -4 -9 6 -14 -8 -11 -28 1 -5 -3 -6
-8 -3 -5 4 -12 2 -16 -4 -4 -6 -10 -8 -15 -5 -4 3 -6 -5 -2 -17 5 -21 4 -22
-13 -8 -11 9 -16 10 -11 3 4 -7 2 -13 -4 -13 -6 0 -16 -12 -22 -26 -8 -18 -17
-24 -30 -20 -17 4 -17 2 -6 -12 11 -13 11 -15 -4 -9 -13 4 -15 2 -11 -10 4
-11 2 -14 -5 -9 -8 5 -12 0 -12 -13 0 -12 -5 -21 -11 -21 -5 0 -7 5 -3 12 4 7
3 8 -4 4 -7 -4 -12 -13 -12 -21 0 -8 -4 -17 -10 -20 -6 -3 -8 2 -5 12 3 10 -2
3 -10 -15 -10 -22 -21 -32 -30 -28 -8 3 -14 2 -14 -2 3 -21 -3 -32 -18 -32 -9
0 -14 -3 -10 -6 10 -11 -31 -47 -44 -39 -7 5 -10 4 -6 -2 7 -12 -48 -75 -57
-65 -6 5 -10 -13 -7 -31 0 -4 -2 -6 -6 -5 -5 2 -19 -5 -33 -15 -13 -9 -21 -17
-17 -17 4 0 -2 -9 -13 -20 -11 -11 -25 -20 -30 -20 -6 0 -15 -12 -20 -26 -7
-17 -16 -24 -25 -21 -10 4 -12 1 -8 -10 5 -13 2 -15 -12 -10 -16 7 -16 5 -4
-10 8 -9 9 -14 3 -10 -14 8 -37 -16 -27 -27 4 -4 0 -4 -10 0 -11 4 -19 0 -23
-11 -4 -9 -13 -14 -20 -11 -8 3 -11 0 -7 -9 3 -8 10 -12 16 -8 6 4 7 1 3 -6
-5 -7 -14 -10 -22 -7 -8 3 -13 0 -11 -7 1 -7 -4 -11 -10 -9 -24 4 -13 -18 13
-28 39 -15 1751 -13 1760 2 4 6 3 8 -3 5 -12 -8 -12 61 0 80 4 6 3 14 -2 17
-13 8 -11 56 3 56 7 0 8 3 0 8 -13 9 -13 125 0 134 8 5 7 8 0 8 -14 0 -14 62
1 72 7 5 6 8 -1 8 -6 0 -11 14 -12 30 0 20 3 28 10 24 7 -5 8 -2 2 7 -13 21
-13 62 0 78 8 11 8 13 0 8 -7 -4 -11 2 -11 18 0 14 4 22 10 18 6 -4 7 -1 1 8
-12 19 -14 108 -3 115 5 3 6 11 2 17 -12 18 -11 141 1 149 7 5 7 8 -1 8 -7 0
-13 7 -13 16 0 9 5 12 13 8 9 -6 9 -4 1 7 -14 18 -14 52 0 61 8 6 8 8 0 8 -12
0 -13 59 -1 77 4 6 3 14 -2 18 -13 7 -10 48 4 57 7 5 7 8 -1 8 -12 0 -13 59
-1 77 4 6 3 14 -2 18 -13 7 -10 48 4 57 7 5 7 8 -1 8 -12 0 -13 59 -1 77 4 6
3 14 -2 17 -13 8 -11 56 3 56 7 0 8 3 0 8 -13 9 -13 125 0 134 8 5 7 8 0 8
-14 0 -14 62 1 72 6 5 6 8 -2 8 -7 0 -13 8 -13 18 0 10 6 24 13 31 10 11 9 12
-1 6 -10 -5 -12 0 -9 23 3 20 0 32 -8 36 -10 3 -12 0 -8 -11z"/>
<path d="M5474 6120 c1 -83 -3 -126 -9 -122 -5 3 -3 -2 5 -13 17 -21 17 -24
-2 -36 -8 -6 -9 -9 -2 -9 8 0 9 -11 4 -35 -5 -21 -4 -38 2 -41 5 -4 5 -11 -1
-18 -6 -7 -7 -16 -3 -20 10 -11 9 -30 -3 -38 -7 -5 -6 -8 1 -8 8 0 9 -11 4
-35 -5 -21 -4 -38 2 -41 5 -4 5 -11 -1 -18 -6 -7 -7 -16 -3 -20 10 -11 9 -30
-3 -38 -7 -5 -6 -8 1 -8 8 0 9 -11 4 -35 -5 -21 -4 -38 2 -41 5 -4 5 -11 -1
-18 -6 -7 -7 -16 -3 -20 10 -11 9 -30 -3 -38 -7 -5 -6 -8 1 -8 8 0 9 -11 4
-34 -4 -19 -5 -37 -2 -40 3 -3 4 -50 3 -103 -1 -54 -1 -104 -1 -110 0 -7 0
-33 0 -58 0 -25 0 -52 0 -60 0 -8 0 -35 0 -60 0 -25 0 -52 0 -60 0 -8 0 -35 0
-60 0 -25 0 -51 -1 -57 0 -7 2 -34 4 -60 2 -29 0 -45 -6 -41 -6 4 -7 1 -1 -8
12 -19 12 -33 -1 -41 -7 -5 -6 -8 1 -8 8 0 9 -11 4 -35 -4 -19 -4 -37 0 -40 4
-3 4 -21 0 -40 -4 -19 -4 -37 0 -40 5 -3 6 -14 3 -25 -5 -20 -3 -20 865 -18
807 3 873 4 888 20 16 16 16 18 1 24 -9 3 -14 10 -11 15 5 9 -11 13 -31 9 -5
-1 -7 1 -3 5 8 9 -16 35 -32 35 -6 0 -8 5 -5 10 3 6 1 10 -5 10 -6 0 -8 5 -4
12 5 8 2 9 -10 5 -10 -4 -15 -3 -11 3 3 6 -1 13 -9 16 -9 3 -13 11 -9 17 4 6
0 8 -11 4 -10 -4 -15 -3 -11 3 3 5 -4 14 -15 20 -11 6 -17 16 -14 22 5 8 1 9
-10 5 -9 -4 -15 -3 -13 1 6 10 -40 52 -49 44 -4 -4 -4 -2 -1 4 7 12 -28 46
-37 37 -3 -4 -6 6 -6 22 0 25 -2 26 -17 14 -10 -7 -15 -10 -11 -5 3 4 -7 20
-23 35 -16 15 -26 31 -22 34 3 4 1 7 -5 7 -17 0 -122 106 -114 115 4 5 -1 5
-11 2 -11 -4 -16 -3 -12 3 3 6 -1 13 -9 16 -9 3 -16 13 -16 21 0 8 -4 12 -9 9
-5 -3 -12 1 -15 10 -3 8 -11 12 -16 9 -6 -4 -10 -3 -9 2 3 20 -2 34 -11 28 -5
-3 -15 5 -21 19 -7 14 -16 23 -21 20 -4 -3 -12 5 -17 18 -6 13 -10 19 -10 15
-1 -4 -7 -2 -15 5 -8 7 -12 16 -9 21 2 4 -3 7 -11 7 -8 0 -17 9 -21 20 -3 11
-9 19 -13 17 -13 -4 -54 41 -48 52 4 6 -1 8 -13 6 -14 -2 -21 4 -25 21 -4 13
-10 23 -14 21 -4 -1 -8 2 -9 8 -1 5 -11 12 -22 17 -13 4 -19 13 -15 22 4 11 0
14 -16 11 -15 -3 -20 0 -17 9 4 9 -4 17 -21 21 -19 5 -22 9 -13 15 10 6 8 9
-8 15 -13 4 -21 15 -21 28 0 18 -2 19 -10 7 -8 -13 -13 -9 -12 10 0 3 -6 11
-14 18 -8 7 -14 10 -14 7 0 -3 -6 0 -14 7 -8 7 -12 16 -9 21 2 4 -1 7 -7 7
-15 0 -41 26 -33 34 4 3 -1 6 -10 6 -9 0 -17 7 -17 16 0 8 -3 13 -7 11 -10 -6
-53 39 -46 47 4 3 -1 6 -11 6 -9 0 -14 5 -11 10 3 6 -1 10 -9 10 -9 0 -16 6
-16 14 0 8 -9 18 -20 21 -11 4 -17 11 -14 17 5 8 1 9 -11 4 -15 -5 -16 -4 -5
9 7 9 9 15 3 13 -6 -2 -20 8 -32 21 -12 13 -21 21 -21 16 0 -4 -7 -2 -15 5 -9
7 -14 19 -11 26 3 8 2 13 -2 13 -19 -3 -33 2 -28 10 6 10 -23 26 -39 22 -5 -2
-7 1 -3 4 11 11 -10 45 -28 45 -8 0 -12 5 -9 10 3 6 1 10 -5 10 -6 0 -8 5 -4
13 5 7 0 6 -11 -3 -17 -14 -18 -13 -12 3 5 14 2 20 -13 24 -11 3 -17 9 -14 14
3 5 -2 9 -10 9 -9 0 -16 7 -16 16 0 8 -4 12 -10 9 -5 -3 -10 1 -10 10 0 9 -4
13 -10 10 -5 -3 -10 1 -10 9 0 14 -11 20 -32 17 -4 0 -5 6 -2 14 4 10 0 15
-11 15 -11 0 -15 5 -12 15 4 8 1 17 -5 21 -7 4 -8 3 -4 -4 4 -7 2 -12 -3 -12
-6 0 -11 7 -11 15 0 13 -12 19 -32 16 -4 0 -5 6 -2 13 3 8 -4 19 -16 26 -11 6
-18 14 -16 18 3 5 -3 8 -13 9 -17 1 -18 -9 -17 -127z"/>
<path d="M4939 6003 c-13 -16 -12 -17 4 -4 9 7 17 15 17 17 0 8 -8 3 -21 -13z"/>
<path d="M6755 5120 c3 -5 8 -10 11 -10 2 0 4 5 4 10 0 6 -5 10 -11 10 -5 0
-7 -4 -4 -10z"/>
<path d="M3585 4649 c-4 -6 -5 -12 -2 -15 2 -3 7 2 10 11 7 17 1 20 -8 4z"/>
</g>
</svg>
