<svg width="382" height="218" viewBox="0 0 382 218" fill="none" xmlns="http://www.w3.org/2000/svg">
<g clip-path="url(#clip0_977_44)">
<path d="M378.245 176.637L369.352 23.7496C368.661 12.0233 358.631 3.06779 346.898 3.73575L97.9948 18.2823C86.2858 18.975 77.3435 29.019 78.0105 40.77L86.3846 186.557C86.4588 187.72 85.273 188.511 84.2108 188.041L81.0242 186.557L28.1114 164.391C21.6887 158.602 31.0016 156.994 31.0016 156.994L69.2658 148.954L68.9447 141.557L13.9815 152.739C10.3008 153.407 6.91659 155.509 5.1133 158.775C3.31002 162.041 3.18651 165.727 4.79217 170.007C5.80497 172.728 7.95409 174.88 10.5973 176.068L91.8686 212.508C92.8567 213.201 97.0808 214.364 98.0936 214.289L358.236 199.1C369.945 198.407 378.887 188.363 378.22 176.612L378.245 176.637ZM239.219 62.9609C243.913 62.4414 248.359 67.8097 249.15 74.9593C249.965 82.1089 246.803 88.3431 242.134 88.8626C237.441 89.3821 232.994 84.0138 232.204 76.8642C231.413 69.7146 234.55 63.4804 239.219 62.9609ZM213.158 63.9505C218.148 63.3815 222.866 69.0962 223.731 76.7158C224.595 84.3106 221.236 90.9407 216.271 91.5097C211.281 92.0787 206.562 86.364 205.698 78.7444C204.833 71.1495 208.193 64.5194 213.158 63.9505ZM186.479 100.465C184.553 93.8846 186.479 87.5267 190.802 86.265C195.1 85.0033 200.165 89.3079 202.091 95.8885C204.018 102.469 202.091 108.827 197.768 110.089C193.47 111.35 188.406 107.046 186.479 100.465ZM263.527 141.285C258.018 142.62 252.583 142.843 247.198 142.2C241.121 141.482 235.044 142.497 229.264 144.501C224.497 146.133 219.309 147.073 213.553 146.975C205.772 146.257 201.177 142.546 201.647 134.184C201.918 125.798 204.315 118.129 211.849 112.266C217.629 105.759 224.027 101.578 231.166 100.317C238.997 98.7335 243.567 98.8077 253.201 104.943C267.454 113.28 272.024 117.807 272.617 126.466C274.569 132.527 271.16 137.351 263.527 141.26V141.285ZM268.936 100.49C264.49 100.985 260.266 95.8885 259.5 89.11C258.734 82.3315 261.723 76.4189 266.17 75.9241C270.616 75.4293 274.84 80.5256 275.606 87.3041C276.372 94.0825 273.383 99.9952 268.936 100.49Z" stroke="#FF5500" stroke-width="6" stroke-miterlimit="10"/>
</g>
<defs>
<clipPath id="clip0_977_44">
<rect width="382" height="218" fill="white"/>
</clipPath>
</defs>
</svg>
